<svg xmlns="http://www.w3.org/2000/svg" viewBox="0 0 115.62 105.36"><g id="Layer_2" data-name="Layer 2"><g id="Layer_1-2" data-name="Layer 1"><path d="M12.4,33.32l7.15,2.74a.64.64,0,0,0,.59,0l.88-.72c.22-.12.13-.5-.27-1.13a.22.22,0,0,1,.06-.33c.13-.1.24-.07.32.1a13.39,13.39,0,0,0,2.15,3.17c.13.22.07.37-.18.48a7.72,7.72,0,0,0-1.77.84A6.18,6.18,0,0,0,19.92,40c-.08.12-.17.17-.27.14a.22.22,0,0,1-.16-.24c.08-.62-.3-1.09-1.15-1.4l-6.92-2.62c-.15-.07-.25,0-.3.1l-.57,1.51a.25.25,0,0,1-.23.18c-.11,0-.18-.07-.2-.21a29.43,29.43,0,0,0-1.43-4.12c-.62-1.45-1.22-2.79-1.81-4-.08-.16-.06-.28,0-.36s.22,0,.32.12A11.89,11.89,0,0,0,8.69,31a7.24,7.24,0,0,0,1.84,1.53.3.3,0,0,0,.2.06.28.28,0,0,0,.15-.15l.84-2.21a.22.22,0,0,1,.12-.13.3.3,0,0,1,.19,0l.94.42a.21.21,0,0,1,.12.29l-.84,2.21C12.2,33.18,12.25,33.27,12.4,33.32Z"/><path d="M9.25,23.61c-.21,0-.31-.09-.31-.25s.11-.26.33-.28a7.28,7.28,0,0,1,1.87.15.17.17,0,0,0,.22-.07.19.19,0,0,0,0-.24,5.26,5.26,0,0,1-.33-3.31,6.84,6.84,0,0,1,1.51-3.17c.14-.19.29-.23.44-.12s.15.25,0,.42a3.8,3.8,0,0,0-.93,2.42,3.33,3.33,0,0,0,1.75,2.54l2.5,1.76a.24.24,0,0,0,.23,0,.21.21,0,0,0,.12-.18c.07-.57.12-1.16.15-1.76a9.57,9.57,0,0,0-.09-1.78q-.12-.7.48-.36a1.56,1.56,0,0,0,1,.17c.36,0,.7-.08,1-.1a8.41,8.41,0,0,1,5.24,1.42,9.66,9.66,0,0,1,4.13,6.44,34.15,34.15,0,0,1,.73,7.06c0,.27-.07.42-.22.44s-.23-.07-.24-.28q-.27-2.57-.77-5.34c-.34-1.85-1.73-3.57-4.17-5.18a13.71,13.71,0,0,0-3-1.46,5.08,5.08,0,0,0-3-.16c-.5.13-.82.58-1,1.36a.2.2,0,0,0,.1.22l6.74,4.76q.9.64,1.26-.18a.78.78,0,0,0,0-.4,1.55,1.55,0,0,1,0-.43.24.24,0,0,1,.21-.26c.13,0,.21,0,.23.17.14.65.25,1.28.32,1.89a4.82,4.82,0,0,0,.51,1.66c.12.22,0,.35-.28.4a8.46,8.46,0,0,0-3.15,1c-.31.16-.45.09-.4-.2.17-.59-.15-1.18-1-1.75l-7.44-5.3A9.85,9.85,0,0,0,11.47,24,7.28,7.28,0,0,0,9.25,23.61Z"/><path d="M34.06,22.7a.59.59,0,0,0-.58-.17,4.32,4.32,0,0,1-.63.09A5.93,5.93,0,0,1,29.49,22a9.86,9.86,0,0,1-2.62-2.08A7.14,7.14,0,0,1,24.8,14a6.64,6.64,0,0,1,.71-2.09,14.86,14.86,0,0,1,1.21-1.93c.15-.18.35-.19.61,0l4.43,2.37c.23.13.3.27.22.42l0,0-3,5.2a.23.23,0,0,0,.06.29c1.61,1.3,3,1.84,4.18,1.63A3.58,3.58,0,0,0,35.79,18c.09-.17.19-.24.3-.18a.16.16,0,0,1,.07.25q-.51,1.14-.93,2.22a16.28,16.28,0,0,0-.63,2.09.59.59,0,0,1-.24.27C34.22,22.77,34.12,22.78,34.06,22.7Zm-5.83-5.23a.22.22,0,0,0,.18.08c.07,0,.12-.05.16-.13l1.59-2.67a.2.2,0,0,0-.09-.3l-3.86-2.14c-.19-.11-.33,0-.43.24a2.9,2.9,0,0,0,.48,2.33A11,11,0,0,0,28.23,17.47Z"/><path d="M51.81,12.56q-.87.63-2.13,1.44a10.36,10.36,0,0,0-1.9,1.52c-.16.17-.29.24-.37.23s-.14-.08-.14-.21a2.5,2.5,0,0,0-.37-.78,5.77,5.77,0,0,0-.73-.93,7.08,7.08,0,0,1-1.56-2.06,21,21,0,0,1-.9-2.37,4.08,4.08,0,0,1,.11-2.71,8.4,8.4,0,0,1,1.56-2.57A14.61,14.61,0,0,0,46.6,2.59,6.47,6.47,0,0,0,47.48.76c.1-.31.3-.35.6-.15a8.14,8.14,0,0,0,4.84,1.92c.41,0,.52.14.33.38a5.85,5.85,0,0,0-.37,3.91,13.16,13.16,0,0,0,1.62,3.64v0h0q2.07,4.17.44,6.56a6.88,6.88,0,0,1-3.57,3q-3.37,1-4.9-.88a.91.91,0,0,1-.18-.91,1,1,0,0,1,.63-.66c.61-.23,1.25.08,1.92.91a2.11,2.11,0,0,0,3.14.66,2.93,2.93,0,0,0,1.41-2.73,8.58,8.58,0,0,0-1.23-3.76s0,0,0,0h0A.2.2,0,0,0,51.81,12.56Zm-.68-7.64a12.22,12.22,0,0,1-2-.6,11.5,11.5,0,0,1-1.73-.79h0v0c-.41-.41-.71-.39-.88,0a6.9,6.9,0,0,0-.21,4.9,14.21,14.21,0,0,0,1.35,3,3,3,0,0,0,2,1.55h0a2.64,2.64,0,0,0,1.84-.94c.08-.06.09-.16,0-.28a7.19,7.19,0,0,1-1-3,6.57,6.57,0,0,1,.72-3.5A.21.21,0,0,0,51.13,4.92Z"/><path d="M63.39,12.28l-1.66,1c-.61.36-1.16.69-1.68,1a.52.52,0,0,1-.4.12c-.1,0-.12-.12-.09-.26s-.21-.59-.71-1.19a6.86,6.86,0,0,1-1.49-5.65,6.2,6.2,0,0,1,3.23-4.51,15.2,15.2,0,0,0,1.62-1.08A7.08,7.08,0,0,0,63.62.19c.18-.27.38-.25.6,0A8,8,0,0,0,68,3.48c.43.13.45.31.08.53a1.55,1.55,0,0,0-.83,1.06v0l-.71,6.2a.89.89,0,0,0,.36.91c.28.19.62.12,1-.23.16-.14.29-.16.4-.07s.1.23,0,.42c-.38.44-.76.89-1.11,1.32a8.67,8.67,0,0,0-1,1.38h0c-.15.19-.31.17-.46-.06a.83.83,0,0,0-.33-.26,2.5,2.5,0,0,1-1.7-2.28.35.35,0,0,0-.11-.18A.32.32,0,0,0,63.39,12.28Zm1.1-8a5.22,5.22,0,0,1-1.81-1.54c-.31-.48-.6-.55-.85-.23a6.82,6.82,0,0,0-1.7,4.61c0,2.5.68,4.13,2.06,4.88l0,0c.35.16.83,0,1.42-.5a.26.26,0,0,0,.07-.15c0-.13,0-.35.06-.64l.87-6.21A.21.21,0,0,0,64.49,4.3Z"/><path d="M77.81,7.16,75,12.2c-.74,1.29-.92,2.16-.53,2.61a.26.26,0,0,1,0,.21.23.23,0,0,1-.17.11,6.72,6.72,0,0,0-2.94,1.15.28.28,0,0,1-.25,0,.22.22,0,0,1-.11-.21,6.52,6.52,0,0,0-.61-3.14.23.23,0,0,1,0-.2.22.22,0,0,1,.18-.12c.63.12,1.3-.47,2-1.77l2.37-4.2q.69-1.21.39-1.74c-.22-.43-.55-.51-1-.24-.18.12-.31.11-.38,0s0-.28.26-.43c.44-.23.87-.48,1.29-.74s.86-.52,1.3-.78a.39.39,0,0,1,.61.16v0a4.1,4.1,0,0,1,.88,3.26.19.19,0,0,0,.06.21.23.23,0,0,0,.21.08L80.39,6a5.34,5.34,0,0,0,1.46-.49.38.38,0,0,1,.6.16,4.21,4.21,0,0,1,.92,3.23c0,.13,0,.21,0,.25a.27.27,0,0,0,.2,0c.63-.11,1.25-.23,1.88-.37A4.39,4.39,0,0,0,87,8.25c.2-.15.34-.07.42.26.19.77.38,1.4.55,1.88A4.24,4.24,0,0,0,89.31,12c.1.09.14.18.1.26s-.16.18-.25.14a1.65,1.65,0,0,0-.78.1,1.85,1.85,0,0,0-.79.84l-2.92,5.18q-.69,1.22-.39,1.74c.23.41.57.48,1,.22.16-.1.28-.08.34.07s0,.28-.22.41c-.45.24-.89.49-1.32.74l-1.27.77a.43.43,0,0,1-.63-.15,4.88,4.88,0,0,1-.89-2.2A3.56,3.56,0,0,1,81.79,18l3.54-6.23a.63.63,0,0,0,.08-.59l-.52-1.4a.28.28,0,0,0-.28-.17l-1.38.2a.49.49,0,0,0-.36.23l-2.85,5c-.74,1.31-.91,2.18-.52,2.62a.23.23,0,0,1,0,.2c0,.06-.08.09-.17.12a6.51,6.51,0,0,0-2.95,1.14.27.27,0,0,1-.25,0A.18.18,0,0,1,76,19a6.63,6.63,0,0,0-.61-3.15.23.23,0,0,1,0-.2.34.34,0,0,1,.19-.13c.66.15,1.34-.44,2-1.76L80,9.5a2.8,2.8,0,0,0,.39-1.74c-.1-.7-.42-1-1-.92L78,7l-.09,0Z"/><path d="M86.25,27.3a.59.59,0,0,0,.15-.58,4,4,0,0,1-.09-.62,5.91,5.91,0,0,1,.57-3.38,9.42,9.42,0,0,1,2-2.65c1.92-1.75,3.89-2.49,5.9-2.2a6.94,6.94,0,0,1,2.1.67,14,14,0,0,1,2,1.18q.27.21.06.6L96.65,24.8c-.13.23-.27.3-.42.22l0,0L91,22.1a.23.23,0,0,0-.29.06c-1.26,1.64-1.78,3.05-1.54,4.22a3.58,3.58,0,0,0,1.82,2.56c.18.09.24.19.19.3a.18.18,0,0,1-.26.08c-.76-.33-1.5-.62-2.23-.89a16,16,0,0,0-2.1-.59.43.43,0,0,1-.27-.24C86.18,27.47,86.17,27.37,86.25,27.3Zm5.1-5.93a.26.26,0,0,0-.07.18.19.19,0,0,0,.13.16l2.71,1.54a.2.2,0,0,0,.3-.09l2.06-3.91c.1-.19,0-.33-.25-.43a2.93,2.93,0,0,0-2.32.53A11.59,11.59,0,0,0,91.35,21.37Z"/><path d="M94.25,42.57c-.25-.08-.29-.25-.11-.49A9.18,9.18,0,0,0,95.84,37c0-.17.06-.26.16-.28a.23.23,0,0,1,.25.1c.33.52,1,.67,2,.44L105,35.62a.68.68,0,0,0,.22-.08.21.21,0,0,1,.17,0,.24.24,0,0,1,.13.16,14.77,14.77,0,0,0,3.4,5.85.32.32,0,0,1,.09.21c0,.07-.05.12-.16.15A6,6,0,0,0,106.36,44a6.83,6.83,0,0,1-1.93,1.59,6,6,0,0,1-2.23.88,4.65,4.65,0,0,1-2.1-.25,10,10,0,0,1-1.88-.94,9.32,9.32,0,0,1-1.87-1.53A4.09,4.09,0,0,0,94.25,42.57Zm11.57-4.23-7.66,1.84a.29.29,0,0,0-.24.23L97,43.11a.45.45,0,0,0,.29.6,4.31,4.31,0,0,0,3.53.39,5.4,5.4,0,0,0,2-1,6.43,6.43,0,0,0,1.4-1.46,7.22,7.22,0,0,1,2.24-2.19.27.27,0,0,0,.09-.15.2.2,0,0,0,0-.17c-.16-.24-.31-.49-.45-.74A.2.2,0,0,0,105.82,38.34Z"/><path d="M109.42,52.42l0,2.36a.2.2,0,0,1-.22.22h-.85c-.15,0-.22-.07-.22-.21V53.13a.25.25,0,0,0-.08-.17.15.15,0,0,0-.16,0,12.24,12.24,0,0,1-2.14,0l-14.39-1.3c-.31,0-.47-.13-.47-.28s.16-.23.5-.27l8.35-.74c2.77-.25,5.56-.52,8.35-.79V47.91c0-.14.06-.21.2-.21s.2,0,.22.15a2.29,2.29,0,0,0,.93,1.48,2.87,2.87,0,0,0,2,.49,7,7,0,0,1,3.27.49c.88.4,1.13,1.2.74,2.4-.22.67-.42,1.28-.58,1.83s-.08.94.28,1.17c.19.11.28.21.25.3s-.21.08-.53,0a3.89,3.89,0,0,1-2.11-1.27c-.36-.52-.28-1.33.24-2.44s.24-1.69-.74-1.88-1.62,0-1.92.61a4.28,4.28,0,0,1-.76,1.11A.45.45,0,0,0,109.42,52.42Z"/><path d="M102.77,71l-7.09-2.91c-.26-.11-.46-.12-.59,0l-.89.7c-.23.11-.15.49.24,1.13.08.12,0,.23-.08.33s-.23.06-.31-.1A12.94,12.94,0,0,0,92,66.88c-.12-.22-.06-.37.19-.47a7.58,7.58,0,0,0,1.79-.8,6.36,6.36,0,0,0,1.45-1.53c.08-.12.17-.16.27-.13a.22.22,0,0,1,.16.24c-.1.62.27,1.09,1.11,1.43l6.85,2.78c.15.07.25,0,.31-.09l.61-1.5a.23.23,0,0,1,.23-.17c.11,0,.17.08.19.21A30.49,30.49,0,0,0,106.47,71c.59,1.46,1.16,2.81,1.72,4q.11.24-.06.36c-.12.07-.22,0-.32-.12a11,11,0,0,0-1.39-1.94,7.28,7.28,0,0,0-1.81-1.58.28.28,0,0,0-.19-.06.22.22,0,0,0-.15.15l-.9,2.19a.2.2,0,0,1-.12.12.3.3,0,0,1-.19,0l-.93-.44a.22.22,0,0,1-.12-.3l.9-2.19C103,71.12,102.91,71,102.77,71Z"/><path d="M105.68,80.76c.2,0,.31.09.3.26s-.11.26-.33.27a6.88,6.88,0,0,1-1.87-.2.17.17,0,0,0-.22.07.21.21,0,0,0,0,.24,5.23,5.23,0,0,1,.25,3.32,6.75,6.75,0,0,1-1.58,3.13c-.15.18-.29.22-.44.11s-.14-.25,0-.42a3.77,3.77,0,0,0,1-2.39c0-.87-.53-1.73-1.68-2.59l-2.46-1.82a.24.24,0,0,0-.23,0,.2.2,0,0,0-.13.18c-.08.56-.14,1.15-.18,1.75a9.61,9.61,0,0,0,0,1.78c.07.48-.1.59-.49.36a1.48,1.48,0,0,0-1-.21c-.36,0-.71.07-1,.08a8.31,8.31,0,0,1-5.2-1.54,9.67,9.67,0,0,1-4-6.53,34.16,34.16,0,0,1-.56-7.08c0-.27.08-.42.23-.44s.23.08.24.29c.13,1.71.35,3.5.64,5.35S88.6,78.32,91,80a14.53,14.53,0,0,0,2.91,1.53,5.23,5.23,0,0,0,3,.23c.51-.12.84-.57,1-1.34a.18.18,0,0,0-.09-.22l-6.63-4.93c-.59-.44-1-.39-1.26.16a.78.78,0,0,0-.05.4,2,2,0,0,1,0,.43.26.26,0,0,1-.22.25c-.14,0-.21,0-.23-.17a19.14,19.14,0,0,1-.28-1.91,4.75,4.75,0,0,0-.47-1.67q-.17-.33.3-.39a8.33,8.33,0,0,0,3.16-.93c.32-.15.46-.08.41.21-.19.59.11,1.18.92,1.78l7.31,5.47a9.85,9.85,0,0,0,2.67,1.48A7.06,7.06,0,0,0,105.68,80.76Z"/><path d="M80.84,81.1a.61.61,0,0,0,.58.18,3.1,3.1,0,0,1,.63-.07,5.9,5.9,0,0,1,3.35.72A9.49,9.49,0,0,1,88,84.07c1.66,2,2.31,4,1.93,6a6.57,6.57,0,0,1-.76,2.07A14.33,14.33,0,0,1,87.87,94c-.15.17-.35.18-.61,0L82.89,91.6c-.22-.14-.29-.28-.21-.43h0L85.84,86a.24.24,0,0,0,0-.29c-1.59-1.33-3-1.91-4.15-1.72A3.56,3.56,0,0,0,79,85.71c-.09.18-.19.23-.3.18s-.13-.14-.07-.26c.36-.74.69-1.48,1-2.2a13.14,13.14,0,0,0,.68-2.07.55.55,0,0,1,.25-.26Q80.75,81,80.84,81.1Zm5.71,5.36a.25.25,0,0,0-.18-.08.19.19,0,0,0-.17.12l-1.65,2.64a.19.19,0,0,0,.08.3l3.81,2.23c.19.11.33,0,.44-.23a2.9,2.9,0,0,0-.43-2.34A11.25,11.25,0,0,0,86.55,86.46Z"/><path d="M67.21,98.73l-1.32-6.49q-.09-.43-.33-.51l-1.08-.36c-.23-.09-.5.2-.8.85a.25.25,0,0,1-.32.14c-.15,0-.17-.16-.07-.34a14.35,14.35,0,0,0,1.52-3.53c.11-.23.28-.27.5-.1a8.2,8.2,0,0,0,1.68,1,5.74,5.74,0,0,0,2.07.35c.17,0,.26.07.28.17a.23.23,0,0,1-.13.25c-.58.22-.77.79-.57,1.72l1.17,5.66c.19.92.47,1.44.85,1.57s.75,0,.91-.48c.06-.2.16-.27.31-.2s.17.23.08.47c-.18.47-.34.94-.49,1.41s-.3,1-.46,1.44a.38.38,0,0,1-.57.27,4.06,4.06,0,0,1-2.87-1.92.24.24,0,0,0-.19-.14.21.21,0,0,0-.2.14l-1.57,2.79a.25.25,0,0,1-.18.11.21.21,0,0,1-.2-.08l-2-2.4a.21.21,0,0,1,0-.23l1.2-2.26a.24.24,0,0,1,.2-.12.18.18,0,0,1,.18.09l1.49,1.78a.25.25,0,0,0,.19.07.24.24,0,0,0,.19-.12l.48-.89A.25.25,0,0,0,67.21,98.73Z"/><path d="M52.49,92.47,52,98.15q-.21,2.28.6,2.61a.22.22,0,0,1,.08.18.25.25,0,0,1-.11.17,6.62,6.62,0,0,0-2.22,2.27.19.19,0,0,1-.2.11.22.22,0,0,1-.19-.14,5.64,5.64,0,0,0-1.85-2.63.23.23,0,0,1-.07-.2.16.16,0,0,1,.12-.16c.61-.12,1-.94,1.1-2.46l.43-4.79c.09-.94,0-1.52-.36-1.76s-.69-.22-1,.21c-.12.16-.24.19-.36.08s-.11-.26,0-.47c.31-.39.6-.79.88-1.21s.56-.81.85-1.21a.4.4,0,0,1,.65-.09,3.89,3.89,0,0,1,2.15,2.66.21.21,0,0,0,.15.17c.09,0,.15,0,.19,0,.56-.37,1.11-.76,1.67-1.17a4.63,4.63,0,0,0,1.18-1.16c.17-.21.34-.19.5.05a7.26,7.26,0,0,0,1.34,1.47,6.18,6.18,0,0,0,1.84.92c.16.08.24.17.22.26a.24.24,0,0,1-.19.18,1.62,1.62,0,0,0-.67.4,1.83,1.83,0,0,0-.38,1.09l-.52,5.76c-.08.92,0,1.51.37,1.75a.64.64,0,0,0,1-.21c.11-.17.23-.19.35-.08s.1.27-.06.47q-.45.59-.87,1.2c-.28.42-.57.83-.86,1.24a.38.38,0,0,1-.63.1h0A4,4,0,0,1,55,100l.66-7a.6.6,0,0,0-.16-.55l-1.08-1.07a.24.24,0,0,0-.31-.05l-1.52,1A.2.2,0,0,0,52.49,92.47Z"/><path d="M41.33,105a.25.25,0,0,1-.13.35c-.14.07-.27,0-.38-.21l-.32-1a5.68,5.68,0,0,1-.22-1,.21.21,0,0,0-.13-.2.23.23,0,0,0-.23,0,6.2,6.2,0,0,1-2.86,1.3,5.68,5.68,0,0,1-3.18-.34c-.19-.08-.27-.2-.21-.37s.18-.2.39-.12a3,3,0,0,0,2.3,0A3.85,3.85,0,0,0,38.11,101l4.13-11.1c.1-.27.11-.47,0-.59l-.72-.87c-.19-.16-.56-.06-1.12.29a.26.26,0,0,1-.37,0c-.11-.12-.07-.24.14-.34a13.94,13.94,0,0,0,3.15-2.18c.17-.14.33-.08.46.17a6.69,6.69,0,0,0,.82,1.76,5.42,5.42,0,0,0,1.6,1.4c.13.07.18.16.14.26a.22.22,0,0,1-.21.18,1.45,1.45,0,0,0-.75.21,1.73,1.73,0,0,0-.65,1l-3.18,8.62a9.34,9.34,0,0,0-.68,3A5.1,5.1,0,0,0,41.33,105Z"/><path d="M37.87,83.28a.59.59,0,0,0,0,.6,3.56,3.56,0,0,1,.27.57,5.92,5.92,0,0,1,.46,3.39A9.54,9.54,0,0,1,37.47,91a7.13,7.13,0,0,1-5,3.84,6.78,6.78,0,0,1-2.2,0,13.83,13.83,0,0,1-2.22-.54.43.43,0,0,1-.24-.56l.85-5c.06-.26.17-.37.34-.34h0l5.89,1.22a.23.23,0,0,0,.25-.14c.73-2,.8-3.44.23-4.49a3.57,3.57,0,0,0-2.49-1.91c-.2,0-.29-.1-.27-.22s.09-.17.22-.15q1.23.12,2.4.18a15.48,15.48,0,0,0,2.18-.06.59.59,0,0,1,.33.15C37.89,83.1,37.93,83.2,37.87,83.28Zm-3.12,7.18a.28.28,0,0,0,0-.2.21.21,0,0,0-.17-.12l-3-.66a.2.2,0,0,0-.26.18L30.47,94c0,.21.09.32.37.33a2.9,2.9,0,0,0,2.06-1.19A11.46,11.46,0,0,0,34.75,90.46Z"/><path d="M17.45,88.6a5.08,5.08,0,0,1-2.17-2.77,4.06,4.06,0,0,1,0-2.21,3,3,0,0,1,1.2-1.73,2.49,2.49,0,0,1,1.75-.56c.55.06,1,.12,1.31.19s.65.11,1,.14c.64,0,1-.18.95-.71A6.27,6.27,0,0,1,22,77.57a2.09,2.09,0,0,1,1.69-1,26.18,26.18,0,0,1,2.94,0q1.47.09,2.94.15c.47,0,.59.19.37.49A2.37,2.37,0,0,0,30,79.31c.35,1,.76,2,1.2,3q.12.28-.27.3-.54,0-1.08-.06l-1.09-.08c-.56,0-.91.07-1,.37A3.78,3.78,0,0,0,27.49,84a3.7,3.7,0,0,1-1.08,2.71,3.29,3.29,0,0,1-2.19.77,11.25,11.25,0,0,1-2.35-.25,15,15,0,0,0-2.43-.3c-.09,0-.14-.1-.14-.26a5.25,5.25,0,0,0-.82-3.37c-.54-.62-1.07-.85-1.6-.7a1.61,1.61,0,0,0-1.12,1.09,3.32,3.32,0,0,0,0,2,4.08,4.08,0,0,0,2.08,2.52c.22.12.28.26.17.42S17.68,88.77,17.45,88.6Zm7.23-6.08a.22.22,0,0,0-.21-.21l-3.55-.23c-.13,0-.21,0-.24.11a.24.24,0,0,0,0,.25,4.67,4.67,0,0,1,.71,1.68c.24,1.14.4,1.89.45,2.25s.46.54,1.21.52a1.4,1.4,0,0,0,1.54-1.37A22.41,22.41,0,0,0,24.68,82.52ZM28.05,82q.27-.06.21-.3c-.2-.68-.42-1.36-.63-2s-.44-1.35-.68-2c-.15-.47-.65-.64-1.49-.5-1.05.19-1.43,1.53-1.15,4q.11.54,1,.69Z"/><path d="M21.53,61.31c.25.08.29.24.12.49A9.16,9.16,0,0,0,20,66.92c0,.17-.05.27-.15.29a.24.24,0,0,1-.25-.1c-.34-.52-1-.65-2-.4l-6.75,1.75a.87.87,0,0,0-.23.08.18.18,0,0,1-.16,0,.22.22,0,0,1-.13-.15,14.9,14.9,0,0,0-3.51-5.79.34.34,0,0,1-.1-.21c0-.07.06-.12.16-.16A5.85,5.85,0,0,0,9.4,60.14a6.58,6.58,0,0,1,1.9-1.63,6,6,0,0,1,2.21-.92,4.64,4.64,0,0,1,2.1.21,10.06,10.06,0,0,1,1.9.91,9.34,9.34,0,0,1,1.9,1.49A4.1,4.1,0,0,0,21.53,61.31ZM10,65.76l7.62-2a.28.28,0,0,0,.24-.23l.87-2.71a.45.45,0,0,0-.3-.6,4.27,4.27,0,0,0-3.53-.32,5.17,5.17,0,0,0-2,1,6.64,6.64,0,0,0-1.38,1.48,6.88,6.88,0,0,1-2.2,2.23.27.27,0,0,0-.08.15.19.19,0,0,0,0,.18c.16.24.31.48.45.73A.22.22,0,0,0,10,65.76Z"/><path d="M6.18,51.74l0-2.36c0-.15.06-.22.21-.23l.85,0a.2.2,0,0,1,.22.22l0,1.65a.23.23,0,0,0,.08.17.17.17,0,0,0,.17,0,11.27,11.27,0,0,1,2.13,0l14.41,1c.31,0,.47.11.48.26s-.15.24-.49.28l-8.34.89c-2.77.31-5.55.62-8.33,1l0,1.58a.19.19,0,0,1-.2.22c-.13,0-.21,0-.23-.15a2.29,2.29,0,0,0-1-1.46,2.86,2.86,0,0,0-2-.46,7,7,0,0,1-3.28-.43c-.88-.38-1.15-1.17-.78-2.39.21-.67.4-1.28.55-1.83s.06-.95-.31-1.17c-.19-.1-.27-.2-.25-.29s.2-.08.54,0a3.83,3.83,0,0,1,2.12,1.23c.38.51.31,1.33-.19,2.44s-.21,1.7.77,1.86,1.62,0,1.91-.63A4.07,4.07,0,0,1,6,52.06.44.44,0,0,0,6.18,51.74Z"/></g></g></svg>