<?xml version="1.0" encoding="utf-8"?>
<!-- Generator: Adobe Illustrator 25.4.1, SVG Export Plug-In . SVG Version: 6.00 Build 0)  -->
<svg version="1.1" id="Layer_1" xmlns="http://www.w3.org/2000/svg" xmlns:xlink="http://www.w3.org/1999/xlink" x="0px" y="0px"
	 viewBox="0 0 400 400" style="enable-background:new 0 0 400 400;" xml:space="preserve">
<style type="text/css">
	.st0{stroke:#000000;stroke-width:0.75;stroke-miterlimit:10;}
</style>
<g>
	<g>
		<path class="st0" d="M220,259.9c-10.2,0-20.4,0-30.5,0c-5.3,0-10.4,0-15.6-1.3c-8.7-2.1-16.7-7-22.6-13.7
			c-6.1-6.8-9.9-15.5-10.9-24.5c-0.5-4.4-0.3-8.8-0.3-13.2c0-6.4,0-12.9,0-19.3c0-4.5-0.2-9.1,0.4-13.5c1.2-9.2,5.3-17.5,11.4-24.4
			c1.6-1.8-2.7,2.7-2.4,2.3c0.2-0.2,0.5-0.4,0.7-0.6c0.5-0.4,1-0.9,1.5-1.3c0.9-0.8,1.8-1.5,2.8-2.2c1.8-1.3,3.7-2.4,5.7-3.4
			c4.1-2,8.4-3.4,12.9-4.1c4.6-0.7,9.3-0.5,14-0.5c6.5,0,12.9,0,19.4,0c4.3,0,8.6-0.2,12.9,0.2c9,0.8,17.7,4.5,24.6,10.3
			c6.8,5.8,11.9,13.6,14.2,22.3c1.4,5.3,1.6,10.6,1.6,16c0,10.4,0,20.7,0,31.1c0,8.8-2.6,17.5-7.6,24.8c-1.3,1.9-2.8,3.7-4.4,5.5
			c-1.3,1.4,3.8-3.7,2.3-2.3c-0.2,0.2-0.4,0.4-0.6,0.6c-0.4,0.4-0.9,0.8-1.3,1.2c-0.9,0.8-1.8,1.5-2.8,2.2c-3.7,2.6-7.9,4.7-12.2,6
			C229,259.2,224.5,259.9,220,259.9c-0.5,0-1.9,1.9-2.3,2.2c-0.5,0.5-1.1,1.1-1.6,1.6c-0.1,0.1-0.5,0.7-0.6,0.7
			c9.5,0,18.7-3.1,26.3-8.7c4.1-3,7.8-6.8,11.2-10.6c3-3.4,5.5-7.1,7.4-11.2c5.4-11.7,4-24.9,4-37.4c0-5.3,0-10.5,0-15.8
			c0-7.7-1.8-15.3-5.5-22.1c-4.5-8-11.4-14.6-19.7-18.6c-6.5-3.1-13.4-4.4-20.6-4.4c-11.1,0-22.1,0-33.2,0c-7.5,0-14.9,1.6-21.6,5.1
			c-4,2.1-7.5,4.8-10.7,7.9c-3.7,3.6-7.4,7.2-10.2,11.6c-4.8,7.3-7.2,15.7-7.3,24.4c0,4.6,0,9.2,0,13.8c0,6.2,0,12.4,0,18.5
			c0,6.3,0.5,12.3,2.7,18.3c6.4,17.3,23.3,29,41.7,29.1c10.7,0,21.4,0,32.1,0c1.1,0,2.2,0,3.4,0c0.5,0,1.9-1.9,2.3-2.2
			c0.5-0.5,1.1-1.1,1.6-1.6C219.5,260.5,219.9,259.9,220,259.9z"/>
	</g>
	<g>
		<path class="st0" d="M219.2,266.1c-10.5,0-21.1,0-31.6,0c-6.9,0-13.6-0.8-20.1-3.2c-8.9-3.3-16.7-9.1-22.6-16.5
			c-5.9-7.6-9.7-16.7-10.7-26.3c-0.5-4.8-0.3-9.7-0.3-14.6c0-6.6,0-13.3,0-19.9c0-6,0.1-11.9,1.7-17.7c1.2-4.6,3.1-9,5.5-13.1
			c1.2-2,2.6-4,4-5.9c0.8-1,1.6-1.9,2.4-2.8c1.7-1.9-3.3,3.1-1.4,1.4c0.5-0.5,1.1-1,1.6-1.4c7.4-6.2,16.5-10.3,26-11.6
			c5-0.7,10.1-0.5,15.2-0.5c6.7,0,13.4,0,20.1,0c5.7,0,11.4,0,17,1.3c9.2,2.1,17.8,6.8,24.5,13.4c6.8,6.6,11.7,15.1,14,24.4
			c1.4,5.8,1.5,11.5,1.5,17.4c0,6.6,0,13.2,0,19.8c0,5,0.2,10-0.3,14.9c-1.1,9.5-5,18.6-11,26.1c-0.8,0.9-1.6,1.9-2.4,2.8
			c-0.8,0.9-2,1.6,2-2c-0.2,0.2-0.4,0.4-0.6,0.6c-0.5,0.5-1.1,1-1.6,1.4c-1.8,1.5-3.7,2.9-5.8,4.2c-4,2.5-8.4,4.5-12.9,5.8
			C228.8,265.4,224,266,219.2,266.1c-0.5,0-1.9,1.9-2.3,2.2c-0.5,0.5-1.1,1.1-1.6,1.6c-0.1,0.1-0.5,0.7-0.6,0.7
			c10,0,19.8-3,28.2-8.5c4.5-3,8.3-6.7,12.1-10.6c3.4-3.4,6.4-7.1,8.8-11.3c4.5-7.8,6.8-16.7,6.8-25.7c0-5.2,0-10.4,0-15.6
			c0-5.8,0-11.5,0-17.3c0-8.2-1.7-16.3-5.4-23.7c-8.7-17.3-26.7-28.4-46-28.4c-10.9,0-21.8,0-32.7,0c-8,0-15.8,1.5-23.1,5
			c-4.3,2-8.2,4.7-11.8,7.8c-4,3.5-8,7.5-11.3,11.7c-6,7.8-9.8,17.2-10.6,27c-0.4,5-0.2,10-0.2,15c0,6.7,0,13.3,0,20
			c0,6.7,0.5,13.2,2.7,19.6c6.3,18.8,23.5,32.7,43.2,34.8c5.1,0.5,10.3,0.3,15.4,0.3c6.7,0,13.4,0,20.1,0c1.3,0,2.6,0,3.9,0
			c0.5,0,1.9-1.9,2.3-2.2c0.5-0.5,1.1-1.1,1.6-1.6C218.6,266.6,219.1,266.1,219.2,266.1z"/>
	</g>
	<g>
		<path class="st0" d="M205,370.7c-7.2,0-14.3-0.1-21.5-0.7c-9.1-0.9-18.1-2.5-27-4.8c-17.3-4.5-33.8-11.8-48.8-21.5
			c-14.8-9.5-28.1-21.4-39.4-34.9c-11.3-13.6-20.5-29-27-45.5c-6.8-16.9-10.8-34.9-11.8-53.1c-0.9-16.4-0.2-33,3.1-49
			c3.6-17.6,10-34.5,18.9-50.1c4.4-7.7,9.3-15,14.9-21.9c2.8-3.5,5.8-7,8.9-10.2c0.7-0.8,1.5-1.6,2.3-2.4c0.1-0.1-1.4,1.4-0.8,0.8
			c0.2-0.2,0.4-0.4,0.6-0.6c0.5-0.5,0.9-0.9,1.4-1.3c1.6-1.5,3.2-3,4.9-4.4c13.4-11.7,28.7-21.2,45.1-28.2
			c16.7-7.1,34.5-11.5,52.6-12.9c16.3-1.3,33.1-0.8,49.2,2.1c17.7,3.2,34.8,9.2,50.6,17.8c15.5,8.4,29.7,19.2,41.9,32
			c12.2,12.7,22.5,27.3,30.3,43.2c8,16.2,13.3,33.6,15.7,51.5c1.1,8.3,1.6,16.6,1.6,25c0,8.1-0.3,16.2-1.3,24.3
			c-2.2,17.9-7.3,35.5-15,51.8c-7.6,16.1-17.8,30.9-30,43.9c-0.4,0.4-0.8,0.8-1.2,1.3c-0.5,0.5-1.8,1.6,0.2-0.1
			c-0.9,0.8-1.7,1.6-2.5,2.4c-1.6,1.5-3.2,3-4.9,4.4c-3.4,3-7,5.8-10.6,8.4c-7.1,5.2-14.7,9.9-22.5,14c-16,8.3-33.3,14-51,16.8
			C223,370,214,370.7,205,370.7c-0.5,0-1.9,1.9-2.3,2.2c-0.5,0.5-1.1,1.1-1.6,1.6c-0.1,0.1-0.5,0.7-0.6,0.7
			c18.8,0,37.4-3.1,55.2-9.2c17.1-5.9,33.3-14.6,47.7-25.6c7.4-5.6,14.1-11.9,20.6-18.4c6.3-6.4,12.3-13.1,17.6-20.3
			c10.8-14.6,19.3-30.9,25-48.1c5.7-17.3,8.5-35.4,8.5-53.6c0-8-0.2-15.9-1-23.8c-1-9.2-2.8-18.4-5.3-27.3
			c-5-17.5-12.8-34.2-23-49.2c-10.1-14.9-22.6-28.1-36.8-39.2c-14.3-11.1-30.3-19.9-47.3-25.9c-17.6-6.3-36.3-9.6-55-9.8
			c-16.8-0.2-33.4,1.2-49.7,5.4c-17.6,4.6-34.4,12-49.6,21.8C92,62,78.2,74.6,66.2,88.5c-11.7,13.6-21.3,29-28.3,45.6
			c-7.1,17.1-11.5,35.3-12.7,53.7c-1.1,16.7-0.4,33.8,2.9,50.3c3.6,18,10.1,35.3,19.2,51.2c8.9,15.6,20.3,29.7,33.6,41.7
			c13.4,12.1,28.7,22.1,45.2,29.5c16.8,7.5,34.9,12.2,53.2,13.9c7.1,0.7,14.2,0.7,21.3,0.7c0.5,0,1.9-1.9,2.3-2.2
			c0.5-0.5,1.1-1.1,1.6-1.6C204.5,371.3,204.9,370.7,205,370.7z"/>
	</g>
	<g>
		<path class="st0" d="M204.2,376.9c-17.5,0-34.7-1.8-51.6-6.6c-17.6-5-34.4-12.7-49.7-22.8c-15.1-10-28.6-22.3-40-36.3
			c-11.5-14.1-20.8-30-27.5-46.9c-6.9-17.4-10.9-35.9-12-54.5c-1-17.5,0.1-35.2,3.9-52.3c4-17.9,10.8-35.2,20.2-51
			c4.6-7.8,9.8-15.3,15.5-22.3c3-3.7,6.1-7.2,9.4-10.6c0.2-0.2,1.2-1.2,0.5-0.6c-0.6,0.6,0.4-0.4,0.6-0.5c0.9-0.9,1.8-1.7,2.7-2.5
			c1.7-1.6,3.4-3.1,5.2-4.6c13.9-11.8,29.5-21.4,46.3-28.4c17.2-7.2,35.5-11.7,54.1-13.1c17.5-1.4,35.3-0.6,52.4,2.8
			c18.1,3.6,35.5,10.1,51.6,19.1c15.8,8.9,30.2,20.1,42.7,33.3c12.4,13.2,22.9,28.3,30.8,44.6c8.1,16.7,13.5,34.6,16,52.9
			c2.4,17.3,2.3,35.3-0.1,52.6c-2.6,18.3-8.1,36.2-16.3,52.8c-8.1,16.4-18.7,31.6-31.4,44.8c-0.5,0.6-0.7,0.9-0.1,0.1
			c-0.3,0.4-0.7,0.7-1,1c-0.9,0.9-1.8,1.7-2.7,2.5c-1.8,1.6-3.6,3.2-5.4,4.8c-3.5,2.9-7.1,5.8-10.8,8.4c-7.3,5.3-15,10-23,14.1
			c-16.5,8.5-34.4,14.3-52.7,17.2C222.6,376.2,213.4,376.9,204.2,376.9c-0.5,0-1.9,1.9-2.3,2.2c-0.4,0.4-1.7,2.3-2.2,2.3
			c19.3,0,38.5-3.2,56.7-9.4c17.6-6,34.3-14.8,49.2-26c7.4-5.6,14.3-11.7,20.9-18.3c6.7-6.6,13-13.5,18.7-21
			c11.3-14.8,20.2-31.4,26.4-49c6.3-18.2,9.7-37.3,9.8-56.6c0.2-17.8-1.6-35.5-6.4-52.7c-5-18-12.9-35.2-23.3-50.7
			c-10.3-15.4-22.9-29.1-37.4-40.6c-14.5-11.5-30.8-20.8-48.1-27.3c-17.9-6.7-37-10.5-56.1-11.1c-17.9-0.6-35.8,0.9-53.2,5.4
			c-18.1,4.6-35.5,12.2-51.3,22.3C89.7,56.4,75.6,69.1,63.2,83.2C51,97,40.9,112.6,33.5,129.5c-7.7,17.4-12.4,36.1-14.1,55
			c-1.6,17.8-0.9,36.1,2.6,53.7c3.6,18.4,10.2,36.2,19.4,52.5c9.1,16.1,20.7,30.8,34.3,43.4c13.6,12.6,29.2,23.1,46,30.9
			c17.1,8,35.5,13.2,54.3,15.3c7.9,0.9,15.9,1.1,23.9,1.1c0.5,0,1.9-1.9,2.3-2.2C202.3,378.8,203.7,376.9,204.2,376.9z"/>
	</g>
</g>
<g>
	<path d="M74,148.3l19.6,7.5c0.7,0.3,1.3,0.3,1.6,0l2.4-2c0.6-0.3,0.4-1.4-0.7-3.1c-0.2-0.3-0.2-0.6,0.2-0.9
		c0.3-0.3,0.6-0.2,0.9,0.3c1.8,3.5,3.8,6.5,5.9,8.7c0.3,0.6,0.2,1-0.5,1.3c-2,0.7-3.7,1.5-4.9,2.3c-1.2,0.8-2.5,2.3-3.9,4.3
		c-0.2,0.3-0.5,0.5-0.8,0.4c-0.3-0.1-0.4-0.3-0.4-0.6c0.2-1.7-0.8-3-3.2-3.9l-19-7.2c-0.4-0.2-0.7-0.1-0.8,0.3l-1.6,4.1
		c-0.1,0.3-0.3,0.5-0.6,0.5c-0.3,0-0.5-0.2-0.5-0.6c-0.9-3.6-2.2-7.3-3.9-11.3c-1.7-4-3.4-7.6-5-11c-0.2-0.4-0.2-0.8,0.1-1
		c0.3-0.2,0.6-0.1,0.9,0.3c0.9,1.6,2.2,3.3,4,5.2c1.7,1.9,3.4,3.3,5.1,4.2c0.2,0.1,0.4,0.2,0.5,0.2c0.2-0.1,0.3-0.2,0.4-0.4l2.3-6.1
		c0.1-0.2,0.2-0.3,0.3-0.4c0.2-0.1,0.4-0.1,0.5,0l2.6,1.1c0.4,0.2,0.5,0.5,0.3,0.8l-2.3,6.1C73.5,147.9,73.6,148.2,74,148.3z"/>
	<path d="M65.4,121.5c-0.6,0-0.9-0.2-0.9-0.7c0-0.5,0.3-0.7,0.9-0.8c1.8-0.1,3.5,0,5.2,0.4c0.2,0.1,0.4,0,0.6-0.2
		c0.2-0.2,0.2-0.4,0.1-0.7c-1.3-2.7-1.6-5.7-0.9-9.1c0.7-3.4,2.1-6.3,4.1-8.7c0.4-0.5,0.8-0.6,1.2-0.3c0.4,0.3,0.4,0.7,0,1.2
		c-1.7,2-2.5,4.2-2.5,6.6c0,2.4,1.6,4.7,4.8,7l6.9,4.8c0.2,0.1,0.4,0.2,0.6,0.1c0.2-0.1,0.3-0.3,0.3-0.5c0.2-1.6,0.3-3.2,0.4-4.8
		c0.1-1.7,0-3.3-0.2-4.9c-0.2-1.3,0.2-1.6,1.3-1c0.8,0.5,1.7,0.6,2.7,0.5c1-0.1,1.9-0.2,2.8-0.3c5.5-0.2,10.3,1.1,14.4,3.9
		c6.1,4.2,9.9,10.1,11.3,17.7c1.5,7.6,2.1,14.1,2,19.4c0,0.7-0.2,1.1-0.6,1.2c-0.4,0.1-0.6-0.2-0.7-0.8c-0.5-4.7-1.2-9.6-2.1-14.7
		c-0.9-5.1-4.7-9.8-11.4-14.3c-2.6-1.7-5.3-3.1-8.1-4c-2.7-1-5.5-1.1-8.3-0.4c-1.4,0.4-2.3,1.6-2.6,3.7c-0.1,0.2,0,0.4,0.3,0.6
		l18.5,13.1c1.6,1.2,2.8,1,3.5-0.5c0.1-0.3,0.2-0.7,0.1-1.1c-0.1-0.4-0.1-0.8-0.1-1.2c0-0.4,0.2-0.6,0.6-0.7s0.6,0.1,0.6,0.5
		c0.4,1.8,0.7,3.5,0.9,5.2c0.2,1.7,0.7,3.2,1.4,4.6c0.3,0.6,0,1-0.8,1.1c-3.3,0.4-6.1,1.3-8.6,2.8c-0.9,0.4-1.2,0.2-1.1-0.6
		c0.5-1.6-0.4-3.2-2.6-4.8l-20.4-14.6c-2.8-2-5.2-3.3-7.4-3.9C69.3,121.8,67.3,121.5,65.4,121.5z"/>
	<path d="M133.6,119.1c-0.4-0.4-0.9-0.6-1.6-0.5c-0.6,0.1-1.2,0.2-1.7,0.2c-3.5,0.3-6.5-0.3-9.2-1.8c-2.7-1.5-5.1-3.4-7.2-5.7
		c-4.7-5.4-6.6-10.8-5.7-16.3c0.3-2,1-3.9,1.9-5.7c1-1.9,2.1-3.6,3.3-5.3c0.4-0.5,1-0.5,1.7-0.1l12.2,6.5c0.6,0.4,0.8,0.8,0.6,1.2
		l-0.1,0l-8.3,14.3c-0.1,0.3-0.1,0.6,0.2,0.8c4.4,3.6,8.3,5.1,11.5,4.5c3.2-0.6,5.6-2.2,7.1-4.8c0.2-0.5,0.5-0.7,0.8-0.5
		c0.3,0.1,0.4,0.4,0.2,0.7c-0.9,2.1-1.8,4.1-2.6,6.1c-0.8,2-1.3,3.9-1.7,5.7c-0.1,0.3-0.3,0.5-0.7,0.7
		C134,119.3,133.8,119.3,133.6,119.1z M117.6,104.7c0.1,0.1,0.3,0.2,0.5,0.2c0.2,0,0.3-0.1,0.5-0.3l4.4-7.4c0.2-0.4,0.1-0.6-0.2-0.8
		L112,90.5c-0.5-0.3-0.9-0.1-1.2,0.7c-0.6,1.6-0.2,3.7,1.3,6.4C113.7,100.3,115.5,102.7,117.6,104.7z"/>
	<path d="M182.4,91.3c-1.6,1.2-3.6,2.5-5.9,3.9c-2.3,1.5-4,2.9-5.2,4.2c-0.4,0.4-0.8,0.7-1,0.6c-0.2,0-0.4-0.2-0.4-0.6
		c-0.1-0.4-0.4-1.2-1-2.1c-0.6-1-1.3-1.8-2-2.6c-2-2-3.4-3.9-4.3-5.7c-0.8-1.8-1.7-4-2.5-6.5c-0.8-2.5-0.7-4.9,0.3-7.4
		c1-2.5,2.4-4.9,4.3-7c1.2-1.4,2.3-2.8,3.4-4.2c1-1.4,1.8-3.1,2.4-5c0.3-0.8,0.8-1,1.6-0.4c4.5,3.5,8.9,5.2,13.3,5.3
		c1.1,0.1,1.4,0.4,0.9,1c-1.6,3.8-2,7.3-1.1,10.7c0.9,3.4,2.4,6.7,4.4,10l0,0l0,0c3.8,7.7,4.2,13.7,1.2,18c-3,4.4-6.3,7.1-9.8,8.2
		c-6.2,1.8-10.7,1-13.4-2.4c-0.6-0.8-0.8-1.6-0.5-2.5c0.3-0.9,0.9-1.5,1.7-1.8c1.7-0.6,3.4,0.2,5.3,2.5c2.5,3.3,5.4,3.9,8.6,1.8
		c2.8-1.8,4.1-4.3,3.9-7.5c-0.2-3.2-1.3-6.6-3.4-10.3c0,0,0-0.1-0.1-0.1l0,0C183,91.1,182.7,91,182.4,91.3z M180.5,70.3
		c-1.5-0.3-3.3-0.9-5.4-1.7c-2.1-0.8-3.7-1.5-4.7-2.2l-0.1,0c0,0,0,0,0-0.1c-1.1-1.1-1.9-1.1-2.4,0.1c-1.9,4.4-2.1,8.9-0.6,13.5
		c1,3.1,2.2,5.8,3.7,8.2c1.5,2.4,3.4,3.9,5.6,4.3l0,0l0,0c1.4,0.1,3.1-0.8,5-2.6c0.2-0.2,0.3-0.4,0.1-0.8c-1.6-2.6-2.5-5.4-2.8-8.4
		c-0.3-3,0.4-6.2,2-9.6C181.1,70.7,181,70.4,180.5,70.3z"/>
	<path d="M214.3,90.6c-1.4,0.8-2.9,1.7-4.6,2.7c-1.7,1-3.2,1.9-4.6,2.7c-0.5,0.3-0.9,0.4-1.1,0.3c-0.3-0.1-0.3-0.3-0.2-0.7
		c0.1-0.5-0.6-1.6-2-3.3c-3.6-4.3-4.9-9.5-4.1-15.6c0.8-5.2,3.7-9.3,8.9-12.4c1.6-0.9,3.1-1.9,4.5-3c1.4-1.1,2.7-2.4,3.9-4
		c0.5-0.7,1-0.7,1.6,0.1c3.2,4.7,6.7,7.7,10.4,8.9c1.2,0.4,1.2,0.9,0.2,1.5c-1.3,0.7-2,1.7-2.3,2.9l0,0.1l-2,17.1
		c-0.1,1.1,0.2,2,1,2.5c0.8,0.5,1.7,0.3,2.8-0.6c0.4-0.4,0.8-0.4,1.1-0.2c0.3,0.3,0.3,0.6-0.1,1.1c-1.1,1.2-2.1,2.4-3.1,3.6
		c-1,1.2-1.9,2.4-2.6,3.8l0,0c-0.4,0.5-0.8,0.5-1.3-0.2c-0.2-0.3-0.5-0.6-0.9-0.7c-2.7-1-4.3-3.1-4.7-6.3c0-0.2-0.1-0.3-0.3-0.5
		C214.7,90.5,214.5,90.5,214.3,90.6z M217.4,68.6c-1.5-0.6-3.1-2-5-4.2c-0.8-1.3-1.6-1.5-2.3-0.6c-3.1,3.6-4.7,7.8-4.7,12.6
		c0,6.9,1.9,11.4,5.6,13.4c0,0,0,0,0.1,0c1,0.4,2.3,0,3.9-1.4c0.1-0.1,0.2-0.3,0.2-0.4c0-0.4,0.1-1,0.2-1.8l2.4-17.1
		C217.8,69,217.7,68.8,217.4,68.6z"/>
	<path d="M254,76.6l-7.9,13.8c-2,3.5-2.5,5.9-1.5,7.2c0.1,0.2,0.1,0.4,0,0.6c-0.1,0.2-0.3,0.3-0.5,0.3c-2.7,0.3-5.4,1.4-8.1,3.1
		c-0.2,0.1-0.5,0.1-0.7,0c-0.2-0.1-0.3-0.3-0.3-0.6c0.1-3.2-0.4-6.1-1.7-8.6c-0.1-0.2,0-0.4,0.1-0.6c0.1-0.2,0.3-0.3,0.5-0.3
		c1.7,0.3,3.6-1.3,5.6-4.8l6.5-11.5c1.3-2.2,1.6-3.8,1.1-4.8c-0.6-1.2-1.5-1.4-2.7-0.7c-0.5,0.3-0.8,0.3-1-0.1
		c-0.2-0.4,0-0.8,0.7-1.2c1.2-0.6,2.4-1.3,3.6-2c1.2-0.7,2.4-1.4,3.6-2.1c0.7-0.4,1.3-0.3,1.7,0.4l0,0.1c2.3,3.3,3.1,6.3,2.4,9
		c-0.1,0.3,0,0.4,0.2,0.6c0.1,0.2,0.3,0.2,0.6,0.2c1.6-0.3,3.3-0.7,5.1-1c1.8-0.4,3.1-0.8,4-1.3c0.7-0.4,1.2-0.3,1.7,0.4
		c2.3,3.3,3.1,6.3,2.5,8.9c-0.1,0.4,0,0.6,0.1,0.7c0.2,0.1,0.4,0.1,0.6,0.1c1.7-0.3,3.4-0.6,5.2-1c1.7-0.4,3.1-0.9,4.1-1.6
		c0.6-0.4,0.9-0.2,1.2,0.7c0.5,2.1,1,3.8,1.5,5.2c0.5,1.3,1.7,2.8,3.7,4.5c0.3,0.3,0.4,0.5,0.3,0.7c-0.2,0.4-0.4,0.5-0.7,0.4
		c-0.7-0.1-1.4,0-2.1,0.3c-0.7,0.3-1.5,1-2.2,2.3l-8.1,14.2c-1.3,2.2-1.6,3.8-1.1,4.8c0.6,1.1,1.6,1.3,2.8,0.6
		c0.5-0.3,0.8-0.2,1,0.2c0.2,0.4,0,0.8-0.6,1.1c-1.2,0.7-2.4,1.3-3.6,2c-1.2,0.7-2.3,1.4-3.5,2.1c-0.7,0.4-1.3,0.3-1.7-0.4
		c-1.4-2.1-2.2-4.1-2.4-6c-0.2-2,0.3-3.9,1.4-5.8l9.8-17.1c0.4-0.7,0.4-1.2,0.2-1.6l-1.4-3.8c-0.2-0.3-0.4-0.5-0.8-0.5
		c-2,0.3-3.3,0.5-3.8,0.6c-0.5,0.1-0.8,0.3-1,0.6L260,98.3c-2,3.6-2.5,6-1.4,7.2c0.1,0.2,0.1,0.4,0,0.6c-0.1,0.1-0.2,0.2-0.5,0.3
		c-2.7,0.3-5.4,1.3-8.1,3.1c-0.2,0.1-0.5,0.1-0.7,0c-0.2-0.1-0.3-0.3-0.3-0.5c0.1-3.1-0.4-6-1.7-8.6c-0.1-0.2-0.1-0.4,0-0.6
		c0.1-0.2,0.3-0.3,0.5-0.4c1.8,0.4,3.7-1.2,5.6-4.8l6.5-11.5c0.9-1.6,1.3-3.2,1.1-4.8c-0.3-1.9-1.1-2.8-2.7-2.5l-3.9,0.5l-0.2,0.1
		L254,76.6z"/>
	<path d="M277.1,132.1c0.4-0.4,0.6-1,0.4-1.6c-0.1-0.6-0.2-1.2-0.3-1.7c-0.3-3.5,0.2-6.6,1.6-9.3c1.4-2.7,3.3-5.1,5.6-7.3
		c5.3-4.8,10.7-6.8,16.2-6c2,0.3,3.9,0.9,5.8,1.8c1.9,0.9,3.7,2,5.4,3.3c0.5,0.4,0.6,1,0.2,1.7l-6.3,12.3c-0.4,0.6-0.7,0.8-1.1,0.6
		l0-0.1l-14.4-8c-0.3-0.1-0.6-0.1-0.8,0.2c-3.5,4.5-4.9,8.4-4.3,11.6c0.6,3.2,2.3,5.6,5,7.1c0.5,0.2,0.7,0.5,0.5,0.8
		c-0.1,0.3-0.4,0.4-0.7,0.2c-2.1-0.9-4.1-1.7-6.1-2.4c-2-0.7-3.9-1.3-5.8-1.6c-0.3-0.1-0.5-0.3-0.8-0.7
		C276.9,132.5,276.9,132.2,277.1,132.1z M291.1,115.8c-0.1,0.1-0.2,0.3-0.2,0.5c0,0.2,0.1,0.3,0.3,0.4l7.4,4.2
		c0.4,0.2,0.6,0.1,0.8-0.2l5.7-10.7c0.3-0.5,0-0.9-0.7-1.2c-1.6-0.6-3.7-0.1-6.4,1.4C295.5,111.8,293.2,113.6,291.1,115.8z"/>
	<path d="M298.9,174.1c-0.7-0.2-0.8-0.7-0.3-1.4c2.7-3.5,4.3-8.1,4.7-14c0-0.5,0.2-0.7,0.4-0.8c0.3,0,0.5,0,0.7,0.3
		c0.9,1.4,2.7,1.8,5.4,1.2l18.6-4.4c0.3-0.1,0.5-0.1,0.6-0.2c0.1-0.1,0.3-0.1,0.5,0c0.2,0.1,0.3,0.2,0.4,0.4
		c2,6.4,5.1,11.7,9.3,16.1c0.2,0.2,0.3,0.4,0.2,0.6c0,0.2-0.2,0.3-0.4,0.4c-2.5,1-4.8,2.9-6.9,5.7c-1.2,1.5-3,3-5.3,4.4
		c-2.4,1.4-4.4,2.2-6.1,2.4c-2,0.2-4,0-5.8-0.7c-1.8-0.7-3.5-1.6-5.2-2.6c-1.9-1.2-3.6-2.6-5.1-4.2
		C303.2,175.7,301.3,174.6,298.9,174.1z M330.7,162.6l-21,5c-0.4,0.1-0.6,0.3-0.7,0.6l-2.5,7.4c-0.3,0.7,0,1.3,0.8,1.7
		c3,1.7,6.3,2.1,9.7,1.1c2.2-0.5,4-1.4,5.5-2.6c1.5-1.2,2.8-2.5,3.9-4c1.5-2.3,3.5-4.3,6.2-6c0.1-0.1,0.2-0.2,0.2-0.4
		c0-0.2,0-0.4-0.1-0.5c-0.4-0.7-0.8-1.3-1.2-2C331.3,162.6,331.1,162.5,330.7,162.6z"/>
	<path d="M340.5,201.4l0,6.5c0,0.4-0.2,0.6-0.6,0.6l-2.3,0c-0.4,0-0.6-0.2-0.6-0.6l0-4.5c0-0.2-0.1-0.3-0.2-0.5
		c-0.2-0.1-0.3-0.2-0.5-0.1c-1.4,0.2-3.4,0.1-5.9-0.1l-39.5-3.7c-0.9-0.1-1.3-0.3-1.3-0.7c0-0.4,0.4-0.7,1.4-0.8
		c7.7-0.6,15.3-1.3,22.9-1.9c7.6-0.7,15.3-1.4,22.9-2.1l0-4.4c0-0.4,0.2-0.6,0.5-0.6c0.4,0,0.6,0.1,0.6,0.4c0.3,1.6,1.1,3,2.5,4.1
		c1.4,1.1,3.2,1.5,5.5,1.4c3.6-0.2,6.5,0.3,9,1.4c2.4,1.1,3.1,3.3,2,6.6c-0.6,1.8-1.2,3.5-1.6,5c-0.5,1.5-0.2,2.6,0.8,3.2
		c0.5,0.3,0.8,0.6,0.7,0.8c-0.1,0.3-0.6,0.2-1.5-0.1c-2.9-0.9-4.8-2.1-5.8-3.5c-1-1.4-0.8-3.7,0.7-6.7c1.3-2.9,0.7-4.7-2-5.2
		c-2.7-0.5-4.5,0-5.3,1.6c-0.9,1.6-1.5,2.6-2.1,3C340.7,200.8,340.5,201.1,340.5,201.4z"/>
	<path d="M322,252.3l-19.4-8.1c-0.7-0.3-1.3-0.3-1.6-0.1l-2.5,1.9c-0.6,0.3-0.4,1.4,0.7,3.1c0.2,0.3,0.1,0.6-0.2,0.9
		c-0.4,0.3-0.6,0.2-0.9-0.3c-1.7-3.6-3.6-6.6-5.7-8.9c-0.3-0.6-0.1-1,0.5-1.3c2.1-0.7,3.7-1.4,4.9-2.2c1.2-0.8,2.6-2.2,4-4.2
		c0.2-0.3,0.5-0.5,0.8-0.4c0.3,0.1,0.4,0.3,0.4,0.7c-0.3,1.7,0.7,3,3,3.9l18.8,7.7c0.4,0.2,0.7,0.1,0.8-0.3l1.7-4.1
		c0.1-0.3,0.3-0.5,0.6-0.5c0.3,0,0.5,0.2,0.5,0.6c0.8,3.6,2,7.4,3.6,11.4c1.6,4,3.1,7.7,4.7,11.1c0.2,0.4,0.1,0.8-0.2,1
		c-0.3,0.2-0.6,0.1-0.9-0.3c-0.9-1.6-2.1-3.4-3.8-5.3c-1.7-1.9-3.3-3.4-4.9-4.3c-0.2-0.1-0.4-0.2-0.5-0.2c-0.2,0.1-0.3,0.2-0.4,0.4
		l-2.5,6c-0.1,0.2-0.2,0.3-0.3,0.3c-0.2,0-0.4,0-0.5,0l-2.5-1.2c-0.4-0.2-0.5-0.5-0.3-0.8l2.5-6C322.6,252.7,322.4,252.4,322,252.3z
		"/>
	<path d="M329.8,279.4c0.6,0,0.9,0.3,0.8,0.7c0,0.5-0.3,0.7-0.9,0.7c-1.8,0-3.5-0.2-5.1-0.6c-0.2-0.1-0.5,0-0.6,0.2
		c-0.2,0.1-0.2,0.4-0.1,0.7c1.2,2.7,1.4,5.8,0.6,9.1c-0.8,3.3-2.2,6.2-4.4,8.6c-0.4,0.5-0.8,0.6-1.2,0.3c-0.4-0.3-0.4-0.7,0-1.2
		c1.7-2,2.6-4.2,2.7-6.6c0.1-2.4-1.4-4.8-4.6-7.1l-6.7-5c-0.2-0.2-0.4-0.2-0.6-0.1c-0.2,0.1-0.3,0.3-0.3,0.5
		c-0.2,1.5-0.4,3.2-0.6,4.8c-0.1,1.7-0.1,3.3,0.1,4.9c0.2,1.3-0.3,1.6-1.3,1c-0.8-0.5-1.7-0.7-2.7-0.6c-1,0.1-1.9,0.2-2.8,0.2
		c-5.5,0.1-10.2-1.4-14.3-4.3c-6-4.3-9.5-10.3-10.8-18c-1.2-7.7-1.7-14.2-1.4-19.5c0-0.7,0.2-1.1,0.6-1.2c0.4-0.1,0.6,0.2,0.6,0.8
		c0.3,4.7,0.9,9.6,1.7,14.7c0.8,5.1,4.4,10,11,14.6c2.6,1.8,5.3,3.2,8,4.3c2.7,1,5.5,1.3,8.2,0.7c1.4-0.3,2.3-1.5,2.8-3.7
		c0.1-0.2,0-0.4-0.2-0.6L290.1,264c-1.6-1.2-2.8-1.1-3.5,0.4c-0.1,0.3-0.2,0.7-0.1,1.1c0.1,0.4,0.1,0.8,0,1.2c0,0.4-0.2,0.6-0.6,0.7
		c-0.4,0.1-0.6-0.1-0.6-0.5c-0.3-1.8-0.6-3.5-0.7-5.2c-0.2-1.7-0.6-3.2-1.3-4.6c-0.3-0.6,0-1,0.8-1.1c3.3-0.3,6.2-1.1,8.7-2.5
		c0.9-0.4,1.2-0.2,1.1,0.6c-0.5,1.6,0.3,3.2,2.5,4.9l20,15.2c2.7,2,5.1,3.4,7.3,4.1C325.9,279,327.9,279.4,329.8,279.4z"/>
	<path d="M261.6,279.9c0.4,0.4,0.9,0.6,1.6,0.5c0.6-0.1,1.2-0.2,1.7-0.2c3.5-0.2,6.5,0.5,9.2,2c2.6,1.5,5,3.5,7,5.9
		c4.6,5.5,6.3,11,5.2,16.5c-0.4,1.9-1.1,3.8-2.1,5.7c-1,1.8-2.2,3.6-3.5,5.2c-0.4,0.5-1,0.5-1.7,0.1l-12-6.9
		c-0.6-0.4-0.8-0.8-0.6-1.2l0.1,0l8.7-14.1c0.2-0.3,0.1-0.6-0.1-0.8c-4.3-3.7-8.1-5.3-11.4-4.8c-3.2,0.5-5.7,2-7.3,4.6
		c-0.3,0.5-0.5,0.6-0.8,0.5c-0.3-0.2-0.4-0.4-0.2-0.7c1-2,1.9-4,2.7-6c0.8-2,1.4-3.9,1.9-5.7c0.1-0.3,0.3-0.5,0.7-0.7
		C261.2,279.7,261.5,279.7,261.6,279.9z M277.2,294.7c-0.1-0.1-0.3-0.2-0.5-0.2c-0.2,0-0.3,0.1-0.5,0.3l-4.6,7.2
		c-0.2,0.3-0.1,0.6,0.2,0.8l10.4,6.2c0.5,0.3,0.9,0.1,1.2-0.6c0.6-1.6,0.3-3.7-1.2-6.4C281,299.2,279.3,296.8,277.2,294.7z"/>
	<path d="M223.9,328.2l-3.5-17.9c-0.2-0.8-0.5-1.2-0.9-1.4l-3-1c-0.6-0.2-1.4,0.5-2.2,2.3c-0.2,0.4-0.5,0.5-0.9,0.4
		c-0.4-0.1-0.5-0.4-0.2-0.9c2-3.4,3.4-6.6,4.2-9.7c0.3-0.6,0.8-0.7,1.4-0.3c1.7,1.3,3.2,2.3,4.6,2.9c1.4,0.6,3.3,0.9,5.7,1
		c0.5,0,0.7,0.2,0.8,0.5c0.1,0.3-0.1,0.5-0.4,0.7c-1.6,0.6-2.1,2.2-1.6,4.7l3.1,15.6c0.5,2.5,1.3,3.9,2.3,4.3
		c1.2,0.5,2.1,0.1,2.5-1.3c0.2-0.6,0.5-0.8,0.8-0.6c0.4,0.2,0.5,0.6,0.2,1.3c-0.5,1.3-0.9,2.6-1.4,3.9c-0.4,1.3-0.8,2.6-1.3,3.9
		c-0.3,0.8-0.8,1.1-1.6,0.7c-4-1-6.6-2.8-7.8-5.3c-0.1-0.2-0.3-0.4-0.5-0.4c-0.2,0-0.4,0.1-0.5,0.4l-4.4,7.7
		c-0.1,0.2-0.3,0.3-0.5,0.3c-0.2,0-0.4,0-0.5-0.2l-5.3-6.6c-0.1-0.2-0.2-0.4-0.1-0.6l3.4-6.2c0.1-0.2,0.3-0.3,0.5-0.3
		c0.2,0,0.4,0.1,0.5,0.2l4.1,4.9c0.1,0.1,0.3,0.2,0.5,0.2c0.2,0,0.4-0.1,0.5-0.3l1.3-2.4C223.9,328.4,223.9,328.3,223.9,328.2z"/>
	<path d="M183.5,310.7l-1.5,15.6c-0.4,4.2,0.1,6.6,1.6,7.2c0.2,0.1,0.2,0.3,0.2,0.5c0,0.2-0.1,0.3-0.3,0.5c-2.4,1.4-4.4,3.4-6.1,6.2
		c-0.1,0.2-0.3,0.3-0.6,0.3c-0.2,0-0.4-0.2-0.5-0.4c-1-3-2.7-5.4-5-7.2c-0.2-0.2-0.2-0.4-0.2-0.6c0-0.2,0.1-0.4,0.3-0.4
		c1.7-0.3,2.7-2.6,3.1-6.7l1.3-13.2c0.2-2.6-0.1-4.2-1-4.8c-1-0.8-1.9-0.6-2.7,0.6c-0.3,0.4-0.6,0.5-1,0.2c-0.3-0.3-0.3-0.7,0.1-1.3
		c0.9-1.1,1.7-2.2,2.5-3.3c0.8-1.1,1.6-2.2,2.3-3.3c0.5-0.7,1.1-0.8,1.8-0.2c3.5,2.1,5.5,4.6,5.9,7.4c0,0.2,0.2,0.4,0.4,0.5
		c0.2,0.1,0.4,0.1,0.5-0.1c1.5-1,3.1-2.1,4.6-3.2c1.5-1.1,2.6-2.2,3.2-3.2c0.5-0.6,0.9-0.5,1.4,0.2c1.2,1.7,2.4,3.1,3.7,4
		c1.2,1,2.9,1.8,5,2.6c0.5,0.2,0.7,0.5,0.6,0.7c0,0.2-0.2,0.4-0.5,0.5c-0.6,0.2-1.3,0.5-1.8,1.1c-0.6,0.6-0.9,1.6-1.1,3l-1.5,15.8
		c-0.2,2.5,0.1,4.1,1,4.8c1.1,0.8,2,0.6,2.8-0.6c0.3-0.4,0.6-0.5,1-0.2c0.3,0.3,0.3,0.7-0.2,1.3c-0.8,1.1-1.6,2.1-2.4,3.3
		c-0.8,1.1-1.6,2.3-2.4,3.4c-0.5,0.7-1.1,0.8-1.7,0.2l0,0c-4.3-2.8-6.3-6.3-5.9-10.4l1.9-19.1c0.1-0.7-0.1-1.2-0.4-1.5l-2.9-3
		c-0.2-0.2-0.5-0.3-0.8-0.2c-2.2,1.4-3.6,2.3-4.2,2.7C183.6,310.4,183.5,310.5,183.5,310.7z"/>
	<path d="M152.6,344.9c0.2,0.4,0.1,0.8-0.3,1c-0.4,0.2-0.8,0-1-0.6c-0.3-0.9-0.6-1.8-0.9-2.7c-0.3-1-0.5-1.9-0.6-2.9
		c0-0.3-0.2-0.5-0.4-0.5c-0.2-0.1-0.4-0.1-0.6,0.1c-2.3,1.8-4.9,3-7.9,3.5c-3,0.5-5.9,0.2-8.7-1c-0.5-0.2-0.7-0.6-0.6-1
		c0.1-0.4,0.5-0.6,1.1-0.3c2.3,0.9,4.4,0.9,6.3,0.1c1.9-0.8,3.5-3,4.9-6.5l11.5-30.4c0.3-0.8,0.3-1.3,0-1.6l-2-2.4
		c-0.5-0.4-1.5-0.2-3.1,0.8c-0.4,0.3-0.7,0.2-1-0.1c-0.3-0.3-0.2-0.6,0.4-0.9c3.5-1.8,6.4-3.8,8.7-5.9c0.5-0.4,0.9-0.2,1.3,0.5
		c0.6,1.9,1.3,3.5,2.2,4.8c0.9,1.3,2.3,2.6,4.4,3.9c0.4,0.2,0.5,0.4,0.4,0.7c-0.1,0.3-0.3,0.5-0.6,0.5c-0.7,0-1.3,0.2-2,0.6
		c-0.7,0.4-1.3,1.3-1.8,2.6l-8.9,23.6c-1.3,3.4-1.9,6.2-1.9,8.4C151.3,341.1,151.7,343.1,152.6,344.9z"/>
	<path d="M143.4,285.2c-0.3,0.5-0.3,1.1,0.1,1.7c0.3,0.6,0.6,1.1,0.7,1.6c1.3,3.2,1.7,6.3,1.2,9.3c-0.6,3-1.6,5.9-3.2,8.6
		c-3.7,6.1-8.3,9.6-13.8,10.5c-2,0.3-4,0.3-6.1-0.1c-2.1-0.4-4.1-0.9-6.1-1.5c-0.6-0.2-0.8-0.8-0.6-1.5l2.4-13.6
		c0.2-0.7,0.5-1,0.9-0.9l0.1,0l16.2,3.5c0.3,0,0.6-0.1,0.7-0.4c2-5.3,2.3-9.4,0.7-12.3c-1.5-2.9-3.8-4.7-6.8-5.3
		c-0.5-0.1-0.8-0.3-0.7-0.6c0-0.3,0.3-0.5,0.6-0.4c2.3,0.3,4.5,0.4,6.6,0.5c2.1,0.1,4.1,0.1,6-0.1c0.3,0,0.6,0.1,0.9,0.4
		C143.5,284.7,143.6,285,143.4,285.2z M134.7,304.9c0.1-0.2,0.1-0.4,0-0.5c-0.1-0.2-0.2-0.3-0.5-0.3l-8.3-1.9
		c-0.4-0.1-0.6,0.1-0.7,0.5l-2.3,11.9c-0.1,0.6,0.2,0.9,1,0.9c1.7,0.1,3.6-1,5.7-3.2C131.7,310,133.4,307.5,134.7,304.9z"/>
	<path d="M87.2,299.5c-3-2-5-4.6-5.9-7.6c-0.6-2.1-0.6-4.1-0.1-6.1c0.5-1.9,1.6-3.5,3.3-4.7c1.7-1.2,3.3-1.7,4.8-1.5
		c1.5,0.2,2.7,0.4,3.6,0.5c0.9,0.2,1.8,0.3,2.7,0.4c1.7,0.2,2.6-0.5,2.6-1.9c-0.1-4.5,0.5-7.6,1.7-9.3c1.2-1.7,2.7-2.6,4.7-2.7
		c2.7-0.1,5.4-0.1,8.1,0.1s5.4,0.3,8.1,0.5c1.3,0.1,1.6,0.6,1,1.4c-0.8,1.2-0.7,3.1,0.2,5.7c1,2.6,2,5.4,3.3,8.2
		c0.2,0.5-0.1,0.8-0.8,0.8c-1,0-2-0.1-3-0.2c-1-0.1-2-0.2-3-0.3c-1.5-0.1-2.5,0.2-2.9,1c-0.4,0.8-0.6,1.9-0.7,3.3
		c-0.3,3.5-1.3,6-3,7.4c-1.7,1.4-3.7,2.1-6,2.1c-2.1,0-4.3-0.3-6.4-0.7c-2.2-0.5-4.4-0.8-6.7-0.9c-0.3,0-0.4-0.3-0.4-0.7
		c0-4.5-0.7-7.6-2.2-9.3c-1.5-1.7-2.9-2.3-4.4-2c-1.5,0.4-2.5,1.4-3.1,3c-0.6,1.6-0.6,3.4-0.2,5.4c0.8,2.9,2.7,5.3,5.7,7
		c0.6,0.3,0.8,0.7,0.5,1.1C88.3,299.9,87.8,299.9,87.2,299.5z M107.2,282.9c0-0.4-0.2-0.6-0.6-0.6l-9.7-0.7c-0.3,0-0.6,0.1-0.7,0.3
		c-0.1,0.2-0.1,0.4,0.1,0.7c0.8,1.2,1.5,2.7,1.9,4.6c0.7,3.1,1.1,5.2,1.2,6.2c0.2,1,1.3,1.5,3.3,1.4c2.6-0.1,4-1.3,4.3-3.7
		C107.2,288.7,107.3,285.9,107.2,282.9z M116.4,281.6c0.5-0.1,0.7-0.4,0.6-0.8c-0.6-1.9-1.1-3.7-1.7-5.6c-0.6-1.9-1.2-3.7-1.8-5.6
		c-0.4-1.3-1.8-1.8-4.1-1.4c-2.9,0.5-4,4.2-3.2,11.1c0.2,1,1.1,1.6,2.7,1.9L116.4,281.6z"/>
	<path d="M98.9,224.5c0.7,0.2,0.8,0.7,0.3,1.3c-2.7,3.5-4.2,8.2-4.5,14c0,0.5-0.2,0.7-0.4,0.8c-0.3,0.1-0.5,0-0.7-0.3
		c-0.9-1.4-2.7-1.8-5.4-1.1l-18.6,4.7c-0.3,0.1-0.5,0.1-0.6,0.2c-0.1,0.1-0.3,0.1-0.5,0.1c-0.2-0.1-0.3-0.2-0.4-0.4
		c-2.1-6.3-5.3-11.7-9.5-16c-0.2-0.2-0.3-0.4-0.3-0.6c0-0.2,0.1-0.3,0.4-0.4c2.5-1.1,4.8-3,6.8-5.8c1.2-1.5,2.9-3,5.3-4.4
		c2.3-1.4,4.4-2.2,6.1-2.5c2-0.2,4,0,5.8,0.6c1.8,0.7,3.6,1.5,5.2,2.5c1.9,1.2,3.7,2.6,5.2,4.1C94.6,222.9,96.5,224,98.9,224.5z
		 M67.2,236.4l21-5.3c0.4-0.1,0.6-0.3,0.7-0.6l2.4-7.4c0.3-0.7,0-1.3-0.8-1.7c-3-1.7-6.3-2-9.7-1c-2.2,0.6-4,1.5-5.5,2.7
		c-1.5,1.2-2.8,2.6-3.8,4c-1.5,2.4-3.5,4.4-6.1,6.1c-0.1,0.1-0.2,0.2-0.2,0.4c0,0.2,0,0.4,0.1,0.5c0.4,0.7,0.9,1.3,1.2,2
		C66.7,236.4,66.9,236.5,67.2,236.4z"/>
	<path d="M56.9,197.8l-0.1-6.5c0-0.4,0.2-0.6,0.6-0.6l2.3,0c0.4,0,0.6,0.2,0.6,0.6l0.1,4.5c0,0.2,0.1,0.3,0.2,0.5
		c0.2,0.1,0.3,0.2,0.5,0.1c1.4-0.2,3.4-0.2,5.9,0l39.6,3.2c0.9,0.1,1.3,0.3,1.3,0.7c0,0.4-0.4,0.7-1.4,0.8
		c-7.7,0.7-15.3,1.5-22.9,2.3c-7.6,0.8-15.3,1.6-22.9,2.4l0.1,4.4c0,0.4-0.2,0.6-0.5,0.6c-0.4,0-0.6-0.1-0.6-0.4
		c-0.3-1.6-1.2-3-2.6-4c-1.4-1.1-3.3-1.5-5.5-1.3c-3.6,0.2-6.5-0.2-9-1.3c-2.4-1.1-3.1-3.3-2.1-6.6c0.6-1.8,1.1-3.5,1.6-5
		c0.4-1.5,0.2-2.6-0.8-3.2c-0.5-0.3-0.8-0.6-0.7-0.8c0.1-0.3,0.6-0.2,1.5,0.1c2.9,0.9,4.8,2,5.8,3.4c1,1.4,0.8,3.7-0.6,6.7
		c-1.3,2.9-0.6,4.7,2.1,5.1c2.7,0.5,4.4-0.1,5.3-1.7c0.8-1.6,1.5-2.6,2.1-3.1C56.8,198.4,56.9,198.1,56.9,197.8z"/>
</g>
</svg>
